<svg xmlns="http://www.w3.org/2000/svg" width="24" height="24" viewBox="0 0 310 310"><path d="M302.973 57.388a117.51 117.51 0 0 1-14.993 5.463c6.057-6.85 10.675-14.91 13.494-23.73a5 5 0 0 0-7.313-5.824c-10.865 6.444-22.587 11.075-34.878 13.783a66.88 66.88 0 0 0-46.581-18.983c-36.695 0-66.549 29.853-66.549 66.547 0 2.89.183 5.764.545 8.598C101.163 99.244 58.83 76.863 29.76 41.204c-1.036-1.271-2.632-1.956-4.266-1.825a5 5 0 0 0-3.93 2.467c-5.896 10.117-9.013 21.688-9.013 33.461 0 16.035 5.725 31.249 15.838 43.137a56.37 56.37 0 0 1-8.907-3.977c-1.529-.851-3.395-.838-4.914.033a5 5 0 0 0-2.513 4.224c-.007.295-.007.59-.007.889 0 23.935 12.882 45.484 32.577 57.229a57.37 57.37 0 0 1-5.063-.735 5 5 0 0 0-4.681 1.597c-1.17 1.32-1.557 3.16-1.018 4.84 7.29 22.76 26.059 39.501 48.749 44.605-18.819 11.787-40.34 17.961-62.932 17.961a120.4 120.4 0 0 1-14.095-.826c-2.305-.274-4.509 1.087-5.294 3.279a5 5 0 0 0 2.008 5.895c29.023 18.609 62.582 28.445 97.047 28.445 67.754 0 110.139-31.95 133.764-58.753 29.46-33.421 46.356-77.658 46.356-121.367a181.25 181.25 0 0 0-.084-5.508c11.623-8.757 21.63-19.355 29.773-31.536a5 5 0 0 0-.33-5.998c-1.431-1.704-3.816-2.255-5.852-1.353z"/></svg>