<?xml version="1.0" encoding="iso-8859-1"?>
<!-- Generator: Adobe Illustrator 19.0.0, SVG Export Plug-In . SVG Version: 6.00 Build 0)  -->
<svg version="1.1" id="Layer_1" xmlns="http://www.w3.org/2000/svg" xmlns:xlink="http://www.w3.org/1999/xlink" x="0px" y="0px"
	 viewBox="0 0 512.019 512.019" fill="#fff" stroke="#fff" xml:space="preserve">
<g>
	<g>
		<g>
			<path d="M256.011,64c-64.683,0-117.333,52.651-117.333,117.333s52.651,117.333,117.333,117.333s117.333-52.651,117.333-117.333
				S320.693,64,256.011,64z M298.677,192h-85.333c-5.888,0-10.667-4.779-10.667-10.667s4.779-10.667,10.667-10.667h85.333
				c5.888,0,10.667,4.779,10.667,10.667S304.565,192,298.677,192z"/>
			<path d="M373.664,319.061c38.912-33.28,63.68-82.624,63.68-137.728C437.344,81.344,356,0,256.011,0S74.677,81.344,74.677,181.333
				c0,55.083,24.789,104.427,63.68,137.728L75.275,497.792c-1.429,4.075-0.256,8.661,3.008,11.541
				c2.005,1.749,4.523,2.667,7.061,2.667c1.621,0,3.243-0.384,4.779-1.131l79.232-39.616l48,38.421
				c2.859,2.283,6.72,2.923,10.219,1.728c3.477-1.237,6.059-4.139,6.869-7.744l14.741-66.347l29.035,68.203
				c1.323,3.093,3.989,5.355,7.211,6.165c3.2,0.853,6.656,0.064,9.28-2.005l48-38.421l79.232,39.616
				c1.493,0.747,3.115,1.131,4.736,1.131c2.539,0,5.056-0.917,7.061-2.667c3.243-2.88,4.437-7.467,3.008-11.541L373.664,319.061z
				 M307.787,332.565l-33.045,7.573c-6.144,0.725-12.373,1.195-18.731,1.195c-88.235,0-160-71.765-160-160s71.765-160,160-160
				s160,71.765,160,160C416.011,251.435,370.656,310.997,307.787,332.565z"/>
		</g>
	</g>
</g>
<g>
</g>
<g>
</g>
<g>
</g>
<g>
</g>
<g>
</g>
<g>
</g>
<g>
</g>
<g>
</g>
<g>
</g>
<g>
</g>
<g>
</g>
<g>
</g>
<g>
</g>
<g>
</g>
<g>
</g>
</svg>
