<svg xmlns="http://www.w3.org/2000/svg" stroke="#fff" fill="#fff" viewBox="0 0 512 512" ><path d="M250.828 386.313a16.73 16.73 0 0 0-16.722 16.722v91.872a16.73 16.73 0 0 0 16.722 16.722 16.73 16.73 0 0 0 16.722-16.722v-91.872a16.73 16.73 0 0 0-16.722-16.722zm0-376.341a16.73 16.73 0 0 0-16.722 16.722v66.888a16.73 16.73 0 0 0 16.722 16.722 16.73 16.73 0 0 0 16.722-16.722V26.694a16.73 16.73 0 0 0-16.722-16.722zM60.726 131.741l-35.034-20.228c-7.991-4.616-18.224-1.895-22.84 6.118-4.616 8.001-1.884 18.224 6.118 22.84l35.033 20.227c7.966 4.609 18.224 1.895 22.84-6.117 4.617-8.001 1.885-18.223-6.117-22.84zm442.912 255.716l-70.666-40.804c-7.98-4.616-18.235-1.884-22.84 6.118-4.616 8.001-1.884 18.224 6.118 22.84l70.666 40.804c7.966 4.609 18.225 1.895 22.84-6.118 4.616-8.001 1.884-18.224-6.118-22.84zm-337.845 20.63c-7.98-4.616-18.235-1.884-22.84 6.118l-23.657 40.978c-4.616 8.001-1.884 18.224 6.118 22.84 7.966 4.609 18.225 1.894 22.84-6.118l23.657-40.978c4.617-8.001 1.884-18.223-6.118-22.84zm225.8-391.091c-7.991-4.616-18.224-1.895-22.84 6.118L336.68 78.657c-4.616 8.001-1.884 18.224 6.118 22.84 7.966 4.609 18.225 1.894 22.84-6.118l32.073-55.543c4.617-8.001 1.884-18.224-6.118-22.84zm93.342 227.083h-66.888a16.73 16.73 0 0 0-16.722 16.722 16.73 16.73 0 0 0 16.722 16.722h66.888a16.73 16.73 0 0 0 16.722-16.722 16.73 16.73 0 0 0-16.722-16.722zm-401.326 0H16.722A16.73 16.73 0 0 0 0 260.801a16.73 16.73 0 0 0 16.722 16.722H83.61a16.73 16.73 0 0 0 16.722-16.722 16.73 16.73 0 0 0-16.723-16.722zm316.987 242.566l-41.402-71.634c-4.638-8.002-14.871-10.724-22.851-6.108a16.74 16.74 0 0 0-6.108 22.851l41.402 71.634c4.667 8.057 14.936 10.688 22.851 6.108a16.74 16.74 0 0 0 6.108-22.851zM198.421 136.551l-50.166-86.789c-4.626-7.991-14.86-10.724-22.851-6.108a16.74 16.74 0 0 0-6.108 22.851l50.166 86.789c4.667 8.057 14.935 10.688 22.851 6.108a16.74 16.74 0 0 0 6.108-22.851zm295.943-16.427c-4.626-7.991-14.871-10.724-22.851-6.108l-88.868 51.374a16.74 16.74 0 0 0-6.108 22.851c4.667 8.057 14.935 10.686 22.851 6.108l88.868-51.374a16.74 16.74 0 0 0 6.108-22.851zM140.221 324.641c-4.626-8.002-14.86-10.724-22.851-6.108l-77.578 44.843a16.74 16.74 0 0 0-6.108 22.851c4.667 8.055 14.935 10.686 22.851 6.108l77.578-44.843a16.74 16.74 0 0 0 6.108-22.851zM494.646 40.629l11.822-11.822a16.72 16.72 0 0 0-23.646-23.646L471 16.983 459.178 5.161a16.72 16.72 0 0 0-23.646 23.646l11.822 11.822-11.822 11.822a16.72 16.72 0 0 0 23.646 23.646L471 64.275l11.822 11.822a16.72 16.72 0 0 0 23.646-23.646l-11.822-11.822zM65.451 469.824l11.822-11.822a16.72 16.72 0 0 0-23.646-23.646l-11.822 11.822-11.822-11.822a16.72 16.72 0 0 0-23.646 23.646l11.822 11.822-11.823 11.823a16.72 16.72 0 0 0 23.646 23.646l11.822-11.822 11.822 11.822a16.72 16.72 0 0 0 23.646-23.646l-11.821-11.823z"/><circle cx="72.462" cy="82.434" r="16.722"/><circle cx="27.87" cy="37.842" r="16.722"/><circle cx="473.787" cy="483.764" r="16.722"/><circle cx="429.195" cy="439.172" r="16.722"/><path d="M373.455 232.887a16.73 16.73 0 0 0-13.499-11.376l-65.048-9.45-29.089-58.951c-2.808-5.704-8.622-9.319-14.991-9.319s-12.181 3.614-14.991 9.319l-29.089 58.951-65.048 9.45a16.73 16.73 0 0 0-13.499 11.376 16.72 16.72 0 0 0 4.235 17.147l47.063 45.876-11.116 64.786a16.73 16.73 0 0 0 6.652 16.363 16.77 16.77 0 0 0 17.615 1.274l58.179-30.602 58.179 30.602c5.64 2.958 12.457 2.459 17.613-1.274a16.73 16.73 0 0 0 6.652-16.363l-11.116-64.786 47.063-45.876a16.72 16.72 0 0 0 4.235-17.147z"/><circle cx="108.692" cy="182.212" r="16.722"/><circle cx="317.716" cy="143.752" r="16.722"/><circle cx="376.243" cy="327.693" r="16.722"/></svg>