<svg xmlns="http://www.w3.org/2000/svg" stroke="#fff" fill="#fff" baseProfile="tiny" viewBox="0 0 256 256"><path d="M40.6 181.5c9.3 0 16.8 7.5 16.8 16.8s-7.5 16.8-16.8 16.8-16.8-7.5-16.8-16.8 7.5-16.8 16.8-16.8zm43.9 0c9.3 0 16.8 7.5 16.8 16.8s-7.5 16.8-16.8 16.8-16.8-7.5-16.8-16.8 7.6-16.8 16.8-16.8zm-22.7-38.8c9.3 0 16.8 7.5 16.8 16.8s-7.5 16.8-16.8 16.8S45 168.8 45 159.5s7.5-16.8 16.8-16.8zm45.2 0c9.3 0 16.8 7.5 16.8 16.8s-7.5 16.8-16.8 16.8-16.8-7.5-16.8-16.8 7.5-16.8 16.8-16.8zm42.7 0c9.3 0 16.8 7.5 16.8 16.8s-7.5 16.8-16.8 16.8-16.8-7.5-16.8-16.8 7.5-16.8 16.8-16.8zm42.4 0c9.3 0 16.8 7.5 16.8 16.8s-7.5 16.8-16.8 16.8-16.8-7.5-16.8-16.8 7.5-16.8 16.8-16.8zm-20.4 38.8c9.3 0 16.8 7.5 16.8 16.8s-7.5 16.8-16.8 16.8-16.8-7.5-16.8-16.8 7.5-16.8 16.8-16.8zm-43.5.2c9.3 0 16.8 7.5 16.8 16.8s-7.5 16.8-16.8 16.8-16.8-7.5-16.8-16.8c.3-9.3 7.8-16.8 16.8-16.8zm87.4 0c9.3 0 16.8 7.5 16.8 16.8s-7.5 16.8-16.8 16.8-16.8-7.5-16.8-16.8 7.5-16.8 16.8-16.8zM78.3 239.6c0-10.3-8.3-18.6-18.6-18.6H20.9c-10.3 0-18.6 8.3-18.6 18.6m164 0c0-10.3-8.3-18.6-18.6-18.6h-38.8c-10.3 0-18.6 8.3-18.6 18.6m163.1 0c0-10.3-8.3-18.6-18.6-18.6H196c-10.3 0-18.6 8.3-18.6 18.6M128.9 24c10.9 0 19.7 8.8 19.7 19.7s-8.8 19.7-19.7 19.7-19.7-8.8-19.7-19.7S118 24 128.9 24zm-29.5 86.3V94.8h6.2v15.5h46.8V94.8h5.9v15.5h15.5V93.5c0-13.2-7.8-25.9-23-25.9h-44.2c-14 0-22.8 11.4-22.8 25.6v17.1h15.6zm-34 3.7h125.9v20.9H65.4V114z"/></svg>